# xmcd
#
# Track frame offsets:
#	150
#	22655
#	41412
#	51897
#	62135
#	79205
#	90692
#	96527
#	107690
#	120272
#	134107
#	144330
#	160127
#	185837
#	196017
#	218500
#	228962
#	246142
#
# Disc length: 3432 seconds
#
# Revision: 0
# Processed by: cddbd v1.4PL0 Copyright (c) Steve Scherf et al.
# Submitted via: EasyCDDAExtractor 4.6.0.1
#
DISCID=f00d6612
DTITLE=Eric Clapton and The yardbirds - The daimond collection
DYEAR=1900
DGENRE=
TTITLE0=Five long years
TTITLE1=They call it stormy monday
TTITLE2=West coast idea
TTITLE3=Eric's blues
TTITLE4=Big boss man
TTITLE5=Pounds and stomps
TTITLE6=Choker
TTITLE7=Snake Drive
TTITLE8=Freight loader
TTITLE9=Draggin' my tail
TTITLE10=A certain girl
TTITLE11=Louise
TTITLE12=She's so respectable
TTITLE13=I wish you would
TTITLE14=First time I met the blues
TTITLE15=Got to hurry
TTITLE16=Early in the morning
TTITLE17=For your love
EXTD=
EXTT0=
EXTT1=
EXTT2=
EXTT3=
EXTT4=
EXTT5=
EXTT6=
EXTT7=
EXTT8=
EXTT9=
EXTT10=
EXTT11=
EXTT12=
EXTT13=
EXTT14=
EXTT15=
EXTT16=
EXTT17=
PLAYORDER=
